<svg width="32" height="32" viewBox="0 0 32 32" fill="none" xmlns="http://www.w3.org/2000/svg">
<path d="M23 2H9C5.13401 2 2 5.13401 2 9V23C2 26.866 5.13401 30 9 30H23C26.866 30 30 26.866 30 23V9C30 5.13401 26.866 2 23 2Z" stroke="white" stroke-width="3" stroke-linecap="round" stroke-linejoin="round"/>
<path d="M20.9405 14.6932C21.1102 15.8376 20.9147 17.0063 20.3819 18.0331C19.8491 19.06 19.0061 19.8927 17.9727 20.4128C16.9394 20.9329 15.7684 21.1139 14.6262 20.9301C13.4841 20.7464 12.4289 20.2071 11.6109 19.3891C10.7929 18.5711 10.2536 17.5159 10.0699 16.3738C9.88607 15.2316 10.0671 14.0606 10.5872 13.0273C11.1073 11.9939 11.94 11.1509 12.9669 10.6181C13.9937 10.0853 15.1624 9.88981 16.3068 10.0595C17.474 10.2326 18.5547 10.7765 19.3891 11.6109C20.2235 12.4453 20.7674 13.526 20.9405 14.6932Z" stroke="white" stroke-width="3" stroke-linecap="round" stroke-linejoin="round"/>
<path d="M24 8H24.014" stroke="white" stroke-width="2.5641" stroke-linecap="round" stroke-linejoin="round"/>
</svg>
