<svg width="28" height="28" viewBox="0 0 28 28" fill="none" xmlns="http://www.w3.org/2000/svg">
<path fill-rule="evenodd" clip-rule="evenodd" d="M6 28H0V10H6V28Z" fill="white"/>
<path fill-rule="evenodd" clip-rule="evenodd" d="M2.98216 6H2.94808C1.15755 6 0 4.66605 0 2.99896C0 1.29661 1.1928 0 3.01731 0C4.84182 0 5.96538 1.29661 6 2.99896C6 4.66605 4.84182 6 2.98216 6Z" fill="white"/>
<path fill-rule="evenodd" clip-rule="evenodd" d="M27.9998 27.9995H22.1039V18.5907C22.1039 16.2274 21.2507 14.6148 19.1163 14.6148C17.4874 14.6148 16.5171 15.7019 16.091 16.752C15.9351 17.1283 15.8968 17.6526 15.8968 18.1782V28H10C10 28 10.0777 12.0637 10 10.4134H15.8968V12.9044C16.6794 11.707 18.0809 10 21.2114 10C25.0913 10 28 12.5141 28 17.9159L27.9998 27.9995Z" fill="white"/>
</svg>
