<svg width="33" height="28" viewBox="0 0 33 28" fill="none" xmlns="http://www.w3.org/2000/svg">
<path fill-rule="evenodd" clip-rule="evenodd" d="M16.0234 7.44844L16.0949 8.65952L14.9027 8.51122C10.563 7.94276 6.77179 6.01492 3.5528 2.77713L1.97908 1.1706L1.57373 2.35696C0.71533 5.00157 1.26375 7.79446 3.05207 9.67287C4.00585 10.7109 3.79125 10.8592 2.14599 10.2413C1.57373 10.0436 1.07299 9.89531 1.02531 9.96946C0.858396 10.1425 1.43066 12.3916 1.8837 13.2814C2.50365 14.5172 3.7674 15.7283 5.15037 16.445L6.31874 17.0135L4.93577 17.0382C3.60049 17.0382 3.5528 17.0629 3.69587 17.582C4.17276 19.1885 6.05646 20.8939 8.15476 21.6354L9.63311 22.1544L8.34551 22.9453C6.43797 24.0822 4.1966 24.7249 1.95523 24.7743C0.88224 24.799 0 24.8979 0 24.972C0 25.2192 2.90901 26.6033 4.60195 27.147C9.68079 28.7535 15.7134 28.0615 20.2438 25.318C23.4628 23.3655 26.6818 19.4851 28.184 15.7283C28.9947 13.7263 29.8054 10.0683 29.8054 8.3135C29.8054 7.17657 29.8769 7.02827 31.2122 5.66889C31.9991 4.87799 32.7383 4.01293 32.8813 3.76577C33.1198 3.29617 33.0959 3.29617 31.8799 3.71634C29.8531 4.45782 29.567 4.35895 30.5684 3.24674C31.3076 2.45583 32.1898 1.02231 32.1898 0.602137C32.1898 0.527988 31.8322 0.651567 31.4268 0.87401C30.9976 1.12117 30.0438 1.49191 29.3285 1.71435L28.0409 2.13452L26.8725 1.3189C26.2288 0.87401 25.3227 0.379694 24.8458 0.231398C23.6297 -0.114624 21.7699 -0.0651932 20.673 0.330261C17.6925 1.44248 15.8088 4.30952 16.0234 7.44844Z" fill="white"/>
</svg>
