<svg width="82" height="81" viewBox="0 0 82 81" fill="none" xmlns="http://www.w3.org/2000/svg">
<path d="M80.4482 63.8082L60.05 43.6579C59.0117 42.6321 57.6368 43.0567 57.882 43.0084C55.6609 43.4457 53.6254 42.095 52.3478 40.9393L60.7512 32.6381C66.5278 34.1916 72.7885 32.5896 77.0738 28.3564C82.1055 23.3859 83.4257 15.7872 80.3592 9.44848C79.6446 7.9715 77.6635 7.63737 76.4929 8.79368L68.7389 16.4532L65.9503 15.8508L65.3422 13.0966L73.0955 5.43756C74.2675 4.27998 73.9261 2.32333 72.4324 1.61822C66.0132 -1.41153 58.321 -0.107306 53.2918 4.8636C49.0066 9.09664 47.3854 15.2819 48.9584 20.9889L36.8017 32.998L20.3264 16.723L22.5914 14.4855C23.6184 13.4711 23.505 11.7934 22.3519 10.9223L12.7261 3.65081C11.7695 2.9283 10.4194 3.01689 9.56797 3.8579L3.9055 9.45149C3.05411 10.2925 2.96443 11.6263 3.69586 12.5711L11.0569 22.0801C11.9383 23.2188 13.6356 23.3322 14.664 22.3166L16.9289 20.0793L33.4041 36.3543L21.2473 48.3633C15.4694 46.8094 9.20858 48.4108 4.92393 52.6433C-0.108483 57.612 -1.42897 65.2107 1.63802 71.5516C2.35215 73.0284 4.33328 73.3632 5.50433 72.2066L13.2576 64.5475L16.0456 65.1482L16.6557 67.903L8.90172 75.5627C7.73018 76.7199 8.07051 78.6768 9.5646 79.3819C15.9833 82.4124 23.6753 81.1056 28.7055 76.1365C32.9909 71.9031 34.6125 65.7185 33.0399 60.0123L41.4414 51.7129C44.3187 54.8234 43.5375 57.1807 43.5375 57.1807C43.3844 57.9423 43.6232 58.7544 44.1952 59.3197L64.5935 79.47C66.6577 81.5088 70.0162 81.5088 72.0799 79.47L80.4479 71.2037C82.5171 69.1599 82.5175 65.852 80.4482 63.8082ZM8.79025 11.3384L11.4781 8.68325L17.2537 13.0462L13.2069 17.0438L8.79025 11.3384ZM28.0555 60.1961C29.7167 64.551 28.6384 69.4907 25.3082 72.7804C22.591 75.4644 18.7897 76.6519 15.115 76.1374L20.9821 70.3415C21.5609 69.7699 21.8051 68.9463 21.6303 68.1564L20.4107 62.6468C20.2102 61.7406 19.4933 61.0328 18.5758 60.8352L12.9995 59.6337C12.2006 59.4611 11.3673 59.7028 10.7888 60.2743L4.92265 66.0691C4.4015 62.4391 5.60379 58.6827 8.32115 55.9998C11.6511 52.7102 16.6521 51.6455 21.0612 53.2869C21.944 53.6155 22.9402 53.4033 23.6072 52.7443L53.3936 23.3199C54.0608 22.6608 54.2758 21.6771 53.943 20.8049C52.2813 16.4491 53.3592 11.5089 56.6898 8.21908C59.4057 5.53469 63.2084 4.34754 66.8826 4.86233L61.0164 10.6575C60.4381 11.2287 60.1935 12.0517 60.3679 12.8411L61.5841 18.3496C61.7842 19.256 62.5007 19.9642 63.4181 20.1623L68.9955 21.3672C69.795 21.5396 70.6286 21.2985 71.2074 20.7268L77.0747 14.931C77.5954 18.56 76.3931 22.3164 73.6762 25.0003C70.3459 28.29 65.3457 29.3555 60.937 27.7143C60.054 27.3857 59.0582 27.598 58.3911 28.2569C58.1107 28.5339 29.332 56.9629 28.6047 57.6811C27.9377 58.3402 27.7227 59.3239 28.0555 60.1961ZM48.9509 44.2948C49.9993 45.2611 51.4474 46.3551 53.1987 47.0697L47.6485 52.5525C46.9251 50.8226 45.8179 49.3911 44.84 48.3557L48.9509 44.2948ZM77.0509 67.8476L68.6829 76.1139C68.4921 76.3021 68.1819 76.3023 67.9912 76.1139L49.2914 57.6416L58.3512 48.6919L77.0509 67.1642C77.2423 67.3534 77.2424 67.6582 77.0509 67.8476Z" fill="#F1F1F1"/>
</svg>
